<svg xmlns:xlink="http://www.w3.org/1999/xlink" xmlns="http://www.w3.org/2000/svg" aria-hidden="true" height="16" width="16" class="sc-bXCLTC jnXAjM"><defs><symbol fill="none" viewBox="0 0 16 16" id="vegVeg16" xmlns="http://www.w3.org/2000/svg"><g clip-path="url(#cua)"><path fill-rule="evenodd" clip-rule="evenodd" d="M8 14.6c-1.925 0-3.228-.003-4.203-.134-.934-.125-1.353-.345-1.635-.627-.283-.283-.502-.702-.628-1.636C1.403 11.228 1.4 9.925 1.4 8c0-1.925.003-3.228.134-4.203.126-.934.345-1.353.628-1.635.282-.283.701-.502 1.635-.628C4.772 1.403 6.075 1.4 8 1.4c1.925 0 3.228.003 4.203.134.934.126 1.353.345 1.636.628.282.282.502.701.627 1.635.131.975.134 2.278.134 4.203 0 1.925-.003 3.228-.134 4.203-.125.934-.345 1.353-.627 1.636-.283.282-.702.502-1.636.627-.975.131-2.278.134-4.203.134ZM0 8c0-3.771 0-5.657 1.172-6.828C2.343 0 4.229 0 8 0c3.771 0 5.657 0 6.828 1.172C16 2.343 16 4.229 16 8c0 3.771 0 5.657-1.172 6.828C13.657 16 11.771 16 8 16c-3.771 0-5.657 0-6.828-1.172C0 13.657 0 11.771 0 8Zm8 4a4 4 0 1 0 0-8 4 4 0 0 0 0 8Z" fill="#0F8A65"></path></g><defs><clipPath id="cua"><path fill="#fff" transform="rotate(-180 8 8)" d="M0 0h16v16H0z"></path></clipPath></defs></symbol></defs><use xlink:href="#vegVeg16"></use></svg>